<?xml version="1.0" encoding="UTF-8" standalone="no"?>
<!-- Created with Inkscape (http://www.inkscape.org/) -->
<svg xmlns:dc="http://purl.org/dc/elements/1.1/" xmlns:cc="http://creativecommons.org/ns#" xmlns:rdf="http://www.w3.org/1999/02/22-rdf-syntax-ns#" xmlns:svg="http://www.w3.org/2000/svg" xmlns="http://www.w3.org/2000/svg" xmlns:xlink="http://www.w3.org/1999/xlink" xmlns:sodipodi="http://sodipodi.sourceforge.net/DTD/sodipodi-0.dtd" xmlns:inkscape="http://www.inkscape.org/namespaces/inkscape" height="720" width="940" id="svg2" sodipodi:version="0.32" inkscape:version="0.46" version="1.0" sodipodi:docbase="D:\" sodipodi:docname="SPQRomani[1].svg" inkscape:output_extension="org.inkscape.output.svg.inkscape">
  <defs id="defs4">
    <linearGradient inkscape:collect="always" id="linearGradient2674">
      <stop style="stop-color: rgb(0, 0, 0); stop-opacity: 1;" offset="0" id="stop2676"/>
      <stop style="stop-color: rgb(0, 255, 0); stop-opacity: 1;" offset="1" id="stop2678"/>
    </linearGradient>
    <linearGradient inkscape:collect="always" id="linearGradient2632">
      <stop style="stop-color: rgb(255, 255, 0); stop-opacity: 1;" offset="0" id="stop2634"/>
      <stop style="stop-color: rgb(128, 51, 0); stop-opacity: 1;" offset="1" id="stop2636"/>
    </linearGradient>
    <inkscape:perspective sodipodi:type="inkscape:persp3d" inkscape:vp_x="0 : 360 : 1" inkscape:vp_y="0 : 1000 : 0" inkscape:vp_z="940 : 360 : 1" inkscape:persp3d-origin="470 : 240 : 1" id="perspective138"/>
    <linearGradient id="linearGradient7749">
      <stop id="stop7753" offset="0" stop-color="#585858"/>
      <stop id="stop7755" offset="0.163606" stop-color="#888"/>
      <stop id="stop7757" offset="0.224151" stop-color="#a6a6a6"/>
      <stop id="stop7759" offset="0.284697" stop-color="#ccc"/>
      <stop id="stop7761" offset="0.284697" stop-color="#cccac2"/>
      <stop id="stop7769" offset="0.467446" stop-color="#e3e3e3"/>
      <stop id="stop7771" offset="0.516416" stop-color="#d1d1d1"/>
      <stop id="stop7773" offset="0.541681" stop-color="#c6c6c6"/>
      <stop id="stop7775" offset="0.571953" stop-color="#bbb"/>
      <stop id="stop7777" offset="0.632499" stop-color="#a8a8a8"/>
      <stop id="stop7779" offset="0.662771" stop-color="#b9b9b9"/>
      <stop id="stop7781" offset="0.698052" stop-color="#cacaca"/>
      <stop id="stop7783" offset="0.728325" stop-color="#d2d2d2"/>
      <stop id="stop7785" offset="0.75793" stop-color="#dadada"/>
      <stop id="stop7787" offset="0.787201" stop-color="#d5d5d5"/>
      <stop id="stop7789" offset="0.817474" stop-color="#d0d0d0"/>
      <stop id="stop7791" offset="0.878019" stop-color="#bbb"/>
      <stop id="stop7793" offset="0.934891" stop-color="#898989"/>
      <stop id="stop7795" offset="1" stop-color="#585858" style="stop-color: black; stop-opacity: 1;"/>
    </linearGradient>
    <linearGradient inkscape:collect="always" xlink:href="#linearGradient7749" id="linearGradient7827" x1="-919.80841" y1="341.90723" x2="-174.85301" y2="528.99152" gradientUnits="userSpaceOnUse" gradientTransform="matrix(0.761885, 0, 0, 0.761885, 801.227, 173.531)"/>
    <linearGradient inkscape:collect="always" xlink:href="#linearGradient2632" id="linearGradient2638" x1="483.39673" y1="766.66266" x2="479.6315" y2="374.89023" gradientUnits="userSpaceOnUse" gradientTransform="matrix(1.12426, 0, 0, 1.20414, -41.5383, -119.62)"/>
    <linearGradient inkscape:collect="always" xlink:href="#linearGradient2674" id="linearGradient2680" x1="307.86752" y1="497.14371" x2="677.53461" y2="160.53125" gradientUnits="userSpaceOnUse"/>
    <linearGradient inkscape:collect="always" xlink:href="#linearGradient2674" id="linearGradient2682" gradientUnits="userSpaceOnUse" x1="307.86752" y1="497.14371" x2="677.53461" y2="160.53125"/>
    <linearGradient inkscape:collect="always" xlink:href="#linearGradient2674" id="linearGradient2684" gradientUnits="userSpaceOnUse" x1="307.86752" y1="497.14371" x2="677.53461" y2="160.53125"/>
    <linearGradient inkscape:collect="always" xlink:href="#linearGradient2674" id="linearGradient2686" gradientUnits="userSpaceOnUse" x1="307.86752" y1="497.14371" x2="677.53461" y2="160.53125"/>
    <linearGradient inkscape:collect="always" xlink:href="#linearGradient2674" id="linearGradient2688" gradientUnits="userSpaceOnUse" x1="307.86752" y1="497.14371" x2="677.53461" y2="160.53125"/>
    <linearGradient inkscape:collect="always" xlink:href="#linearGradient2674" id="linearGradient2690" gradientUnits="userSpaceOnUse" x1="307.86752" y1="497.14371" x2="677.53461" y2="160.53125"/>
    <linearGradient inkscape:collect="always" xlink:href="#linearGradient2674" id="linearGradient2692" gradientUnits="userSpaceOnUse" x1="307.86752" y1="497.14371" x2="677.53461" y2="160.53125"/>
    <linearGradient inkscape:collect="always" xlink:href="#linearGradient2674" id="linearGradient2694" gradientUnits="userSpaceOnUse" x1="307.86752" y1="497.14371" x2="677.53461" y2="160.53125"/>
    <linearGradient inkscape:collect="always" xlink:href="#linearGradient2674" id="linearGradient2696" gradientUnits="userSpaceOnUse" x1="307.86752" y1="497.14371" x2="677.53461" y2="160.53125"/>
    <linearGradient inkscape:collect="always" xlink:href="#linearGradient2674" id="linearGradient2698" gradientUnits="userSpaceOnUse" x1="307.86752" y1="497.14371" x2="677.53461" y2="160.53125"/>
    <linearGradient inkscape:collect="always" xlink:href="#linearGradient2674" id="linearGradient2700" gradientUnits="userSpaceOnUse" x1="307.86752" y1="497.14371" x2="677.53461" y2="160.53125"/>
    <linearGradient inkscape:collect="always" xlink:href="#linearGradient2674" id="linearGradient2702" gradientUnits="userSpaceOnUse" x1="307.86752" y1="497.14371" x2="677.53461" y2="160.53125"/>
    <linearGradient inkscape:collect="always" xlink:href="#linearGradient2674" id="linearGradient2704" gradientUnits="userSpaceOnUse" x1="307.86752" y1="497.14371" x2="677.53461" y2="160.53125"/>
    <linearGradient inkscape:collect="always" xlink:href="#linearGradient2674" id="linearGradient2706" gradientUnits="userSpaceOnUse" x1="307.86752" y1="497.14371" x2="677.53461" y2="160.53125"/>
    <linearGradient inkscape:collect="always" xlink:href="#linearGradient2674" id="linearGradient2708" gradientUnits="userSpaceOnUse" x1="307.86752" y1="497.14371" x2="677.53461" y2="160.53125"/>
    <linearGradient inkscape:collect="always" xlink:href="#linearGradient2674" id="linearGradient2710" gradientUnits="userSpaceOnUse" x1="307.86752" y1="497.14371" x2="677.53461" y2="160.53125"/>
    <linearGradient inkscape:collect="always" xlink:href="#linearGradient2674" id="linearGradient2712" gradientUnits="userSpaceOnUse" x1="307.86752" y1="497.14371" x2="677.53461" y2="160.53125"/>
  </defs>
  <sodipodi:namedview id="base" pagecolor="#ffffff" bordercolor="#666666" borderopacity="1.0" inkscape:pageopacity="0.0" inkscape:pageshadow="2" inkscape:cx="479.10056" inkscape:cy="342.69005" inkscape:zoom="0.7" inkscape:document-units="px" inkscape:current-layer="layer1" inkscape:window-width="1280" inkscape:window-height="968" inkscape:window-x="0" inkscape:window-y="22" width="940px" height="720px" showgrid="false"/>
  <metadata id="metadata7">
    <rdf:RDF>
      <cc:Work rdf:about="">
        <dc:format>image/svg+xml</dc:format>
        <dc:type rdf:resource="http://purl.org/dc/dcmitype/StillImage"/>
        <dc:title>Imperatores Romani</dc:title>
        <dc:date>2006.07.25</dc:date>
        <dc:creator>
          <cc:Agent>
            <dc:title>Piotr Michal Jaworski</dc:title>
          </cc:Agent>
        </dc:creator>
        <dc:rights>
          <cc:Agent>
            <dc:title>Piotr Michal Jaworski</dc:title>
          </cc:Agent>
        </dc:rights>
        <dc:publisher>
          <cc:Agent>
            <dc:title>Piotr Michal Jaworski</dc:title>
          </cc:Agent>
        </dc:publisher>
        <dc:description>piomrex (AT-) konin.lm.pl</dc:description>
        <cc:license rdf:resource="http://web.resource.org/cc/PublicDomain"/>
      </cc:Work>
      <cc:License rdf:about="http://web.resource.org/cc/PublicDomain">
        <cc:permits rdf:resource="http://web.resource.org/cc/Reproduction"/>
        <cc:permits rdf:resource="http://web.resource.org/cc/Distribution"/>
        <cc:permits rdf:resource="http://web.resource.org/cc/DerivativeWorks"/>
      </cc:License>
    </rdf:RDF>
  </metadata>
  <g inkscape:groupmode="layer" inkscape:label="Warstwa 1" id="layer1" transform="translate(91.8807, -228.748)">
    <path style="font-size: 245.203px; font-style: normal; font-weight: normal; fill: rgb(0, 0, 0); fill-opacity: 1; stroke: none; stroke-width: 1px; stroke-linecap: butt; stroke-linejoin: miter; stroke-opacity: 1; font-family: Lello;" d="M 150.23244,423.42191 C 149.06574,429.86167 148.43759,439.61712 148.34796,452.68827 L 147.94414,452.54412 C 146.23903,441.87578 141.12402,434.95565 132.5991,431.78372 C 124.07398,428.6122 115.36949,427.36274 106.48561,428.03532 C 94.550509,429.47722 86.115233,433.80229 81.179751,441.01056 C 76.244157,448.21922 74.135343,456.48492 74.85329,465.80769 C 75.750607,479.07143 83.737203,492.47917 98.813089,506.03094 C 113.88883,519.58297 126.27255,531.93347 135.96424,543.08247 C 145.65573,554.23163 150.50153,567.54327 150.50166,583.01737 C 150.50153,598.39548 145.566,611.25056 135.69503,621.58268 C 125.82385,631.91482 113.97857,637.08088 100.15915,637.08088 C 87.41642,637.27311 76.558244,635.80739 67.584578,632.68371 C 58.61084,629.56005 54.034244,627.08515 53.854801,625.259 L 49.547417,591.09086 L 50.08584,591.23503 C 52.867667,608.24703 59.620376,618.96363 70.34399,623.3848 C 81.067523,627.806 91.005905,629.77631 100.15915,629.29573 C 110.74805,628.91129 119.65444,625.5954 126.87837,619.34805 C 134.1021,613.10074 138.07296,605.84422 138.79097,597.57848 C 140.13692,583.35382 132.06058,568.11994 114.56195,551.87679 C 97.063151,535.63381 83.423117,521.79357 73.641834,510.35601 C 63.860449,498.91873 58.969787,486.18378 58.969808,472.15115 C 58.969787,458.40718 63.65854,446.41711 73.036106,436.18088 C 82.413571,425.94508 93.742872,420.82706 107.02403,420.82685 C 111.69028,420.63485 118.57759,421.09138 127.68601,422.19646 C 136.79421,423.30198 144.30969,423.71046 150.23244,423.42191 L 150.23244,423.42191 z M 243.37956,420.82685 C 258.4553,420.82706 271.5569,426.5698 282.68441,438.05509 C 293.81168,449.54077 299.42024,463.83754 299.51011,480.94547 C 299.50998,498.05371 294.03602,512.35048 283.08821,523.83586 C 272.14018,535.32144 258.94886,541.06419 243.51416,541.06409 C 234.45065,541.06419 226.19485,538.99776 218.74672,534.86481 L 218.88132,534.43231 C 225.79103,537.89246 232.83538,539.57443 240.01441,539.47822 C 248.27015,539.76667 256.9522,535.2734 266.06061,525.9984 C 275.16882,516.72361 279.76784,503.53213 279.85768,486.42392 C 279.85758,469.21987 274.29388,454.89906 263.16659,443.46144 C 252.0391,432.02421 238.9375,426.738 223.86174,427.60281 L 218.2083,427.74698 C 217.66982,439.95353 217.44548,447.25809 217.53527,449.66073 C 217.08654,478.49475 216.8622,504.92577 216.86224,528.95387 C 216.8622,552.98217 217.08654,579.4132 217.53527,608.24701 C 217.62497,617.18552 219.30753,623.84134 222.58298,628.21447 C 225.85832,632.58761 230.90603,635.35085 237.72612,636.5042 L 237.72612,637.08088 C 217.62497,634.9664 197.43413,634.9664 177.15357,637.08088 L 177.15357,636.5042 C 183.97359,635.35085 189.02129,632.58761 192.2967,628.21447 C 195.57209,623.84134 197.25466,617.18552 197.34443,608.24701 C 197.79308,579.4132 198.01742,552.98217 198.01745,528.95387 C 198.01742,504.92577 197.79308,478.49475 197.34443,449.66073 C 197.25466,440.72241 195.57209,434.0666 192.2967,429.69327 C 189.02129,425.32034 183.97359,422.5571 177.15357,421.40353 L 177.15357,420.82685 C 195.37018,422.5571 209.84027,422.98961 220.56391,422.12438 C 231.28742,421.25958 238.89263,420.82706 243.37956,420.82685 L 243.37956,420.82685 z M 311.75922,528.8097 C 311.75922,497.57314 320.91239,471.76686 339.21879,451.39076 C 357.5251,431.01503 380.58752,420.82706 408.40608,420.82685 C 436.3142,420.82706 459.39905,431.03906 477.66069,451.46284 C 495.92201,471.88699 505.05274,497.66926 505.05295,528.8097 C 505.05274,560.14258 495.89957,586.04498 477.59339,606.51697 C 472.11927,612.66822 466.15175,617.90637 459.69084,622.23143 C 463.19043,622.23144 466.82479,623.14452 470.5939,624.97065 L 509.76413,644.57768 C 529.41634,654.95785 546.39907,662.28646 560.71238,666.5635 C 575.02519,670.8405 591.55921,671.15287 610.31456,667.50061 C 629.0693,663.8483 646.88209,657.84125 663.75301,649.47944 L 663.75301,650.05612 C 645.89499,660.4363 627.31943,669.03838 608.02627,675.86244 C 588.73251,682.68641 570.13451,684.46449 552.23223,681.1967 C 534.32944,677.92883 515.23789,671.15287 494.95753,660.86882 L 449.1916,638.09007 C 442.19197,634.43777 436.89749,633.0922 433.30813,634.05333 L 433.30813,634.05333 C 425.50088,636.07169 417.20021,637.08088 408.40608,637.08088 C 380.58752,637.08088 357.5251,626.8689 339.21879,606.44489 C 320.91239,586.02095 311.75922,560.14258 311.75922,528.8097 L 311.75922,528.8097 z M 418.09769,626.98903 C 439.99341,624.58622 457.22292,613.2449 469.78626,592.96505 C 482.34928,572.68531 487.23995,548.41683 484.45828,520.15954 C 481.67625,492.09471 472.18656,469.55626 455.98919,452.54412 C 439.7915,435.53232 420.74482,428.27581 398.84908,430.77454 C 376.86342,433.17757 359.58905,444.49484 347.02591,464.72642 C 334.46269,484.95834 329.57202,509.15474 332.35389,537.31569 C 335.13572,565.57295 344.64784,588.20752 360.89029,605.21945 C 377.13263,622.23144 396.20175,629.48797 418.09769,626.98903 L 418.09769,626.98903 z M 591.46975,420.82685 C 607.71207,420.82706 621.84566,427.00231 633.87053,439.35262 C 645.89518,451.70331 651.90756,467.15344 651.90769,485.70307 C 651.72808,502.13851 647.1515,515.97875 638.17792,527.22383 C 630.81936,535.8741 623.775,542.16948 617.04482,546.11002 C 621.17263,547.07124 624.94159,549.95462 628.3517,554.76018 L 662.94535,607.38199 C 672.00865,622.1834 680.758,631.74662 689.19346,636.07169 C 697.62856,640.39677 705.43568,641.21373 712.61484,638.52257 L 712.88405,639.09925 C 687.21907,652.45892 665.63732,646.88439 648.13873,622.3756 L 607.89165,560.95947 C 605.28918,557.01892 601.34074,555.00054 596.04635,554.90436 C 582.31651,556.1539 570.56095,556.05779 560.77967,554.61601 C 561.13857,569.89802 561.22831,587.77501 561.04889,608.24701 C 561.13857,617.18552 562.82114,623.84134 566.09659,628.21447 C 569.37194,632.58761 574.41964,635.35085 581.23973,636.5042 L 581.23973,637.08088 C 561.13857,634.9664 540.94774,634.9664 520.66718,637.08088 L 520.66718,636.5042 C 527.48718,635.35085 532.53489,632.58761 535.81032,628.21447 C 539.0857,623.84134 540.76826,617.18552 540.85802,608.24701 C 541.30668,579.4132 541.53103,552.98217 541.53106,528.95387 C 541.53103,504.92577 541.30668,478.49475 540.85802,449.66073 C 540.76826,440.72241 539.0857,434.0666 535.81032,429.69327 C 532.53489,425.32034 527.48718,422.5571 520.66718,421.40353 L 520.66718,420.82685 C 538.52484,422.26876 553.08467,422.60516 564.34672,421.83604 C 575.60866,421.06735 584.64967,420.73096 591.46975,420.82685 L 591.46975,420.82685 z M 562.93336,428.17949 C 562.03594,434.23481 561.40778,441.34715 561.04889,449.51655 L 560.51045,516.84364 C 560.33094,527.89674 560.28607,537.94052 560.37585,546.97503 C 569.61871,548.89738 579.93848,549.28184 591.33516,548.1284 C 600.57798,548.12848 609.77603,542.72213 618.9293,531.90934 C 628.08237,521.09675 632.56922,507.56887 632.38987,491.32566 C 632.38975,472.67994 626.37738,457.18173 614.35271,444.83105 C 602.32785,432.48075 588.14941,426.738 571.81733,427.60281 L 562.93336,428.17949 z" id="text2505"/>
    <g transform="matrix(2.63288, 0, 0, 2.47437, -804.536, -166.592)" id="g7894">
      <g id="g7896" style="fill: rgb(0, 128, 0);">
        <path d="M 569.38574,394.10938 C 558.61133,396.99463 547.11426,397.92236 536.65039,401.49072 C 554.37305,386.29492 553.36133,362.78223 565.18555,344.88477 C 568.95215,339.81738 572.06543,334.50586 576.45605,329.69727 C 569.26367,344.125 572.38281,362.84375 564.12012,376.84473 C 560.93945,382.40625 556.39063,387.80176 551.36035,392.16992 C 553.00391,392.1084 554.44238,390.68555 555.8877,389.73535 C 569.30859,376.34277 586.8418,372.59766 601.35938,361.7168 C 607.1748,357.08301 612.50098,351.01074 615.05762,344.44336 C 612.31055,366.66309 590.20508,387.48926 569.38574,394.10938 L 569.38574,394.10938 z" id="path7898"/>
        <path d="M 617.73535,304.14551 C 611.16895,313.48926 603.22559,322.1875 597.15918,331.68359 C 597.83594,324.16504 598.72656,314.91992 595.79785,307.79785 C 590.72266,292.46094 586.26367,276.88867 584.8252,260.05664 L 585.02344,253.62012 C 588.84277,270.80957 605.72852,282.62598 604.66309,301.90723 C 605.0498,306.58008 603.60449,310.55273 602.72949,314.66211 L 603.01953,314.96582 L 603.78027,314.11328 C 606.28418,304.65527 607.54785,294.70996 611.44141,285.88574 C 616.97461,273.1875 623.88379,260.37207 621.06836,245.04004 C 629.48438,263.11621 626.93457,287.26758 617.73535,304.14551 L 617.73535,304.14551 z" id="path7900"/>
        <path d="M 607.37109,206.75781 C 618.44336,221.76318 620.87012,245.67578 612.80566,262.8877 C 609.7998,270.18164 607.67676,277.9541 606.49609,286.02734 C 605.93262,284.63477 605.80371,282.7627 605.30078,281.21094 C 600.89648,264.36328 584.96289,252.35645 578.41016,236.47217 C 576.33203,231.27783 574.56055,225.91064 573.57813,220.27197 C 580.58008,233.22217 597.83594,239.91113 602.53906,254.18262 C 604.46582,257.79199 604.35742,262.30176 605.55273,266.18262 C 605.80371,266.18262 606.05469,265.99609 606.05469,265.74121 C 603.98438,251.04004 604.61621,235.65381 606.61133,221.13525 C 606.49609,213.271 605.72852,205.64258 601.35938,199.55518 C 604.16113,201.1875 605.42285,204.32275 607.37109,206.75781 L 607.37109,206.75781 z" id="path7902"/>
        <path d="M 599.56445,203.87744 C 602.47266,217.02637 598.22461,229.83203 600.89648,243.10742 L 600.79688,243.22168 C 593.64355,229.15527 578.45703,222.5166 568.00781,211.2583 C 561.95215,204.57764 559.31934,196.43555 557.80469,187.81445 C 563.79199,202.24902 579.94824,205.42969 589.22363,217.59326 C 592.32715,220.39746 593.33984,224.28223 595.34082,227.4624 L 595.66797,227.14648 C 590.33398,215.75977 588.54687,202.94531 584.8252,190.80127 C 582.96191,185.53906 579.26367,180.36865 574.30176,177.05078 C 586.47754,179.53906 597.03027,192.25049 599.56445,203.87744 L 599.56445,203.87744 z" id="path7904"/>
        <path d="M 567.01172,173.72168 C 576.18164,181.92871 580.3291,192.55518 583.00684,203.56543 L 584.52148,207.06201 C 571.21191,197.48975 559.12109,184.62207 550.62207,171.03223 L 540.24219,160.53125 C 549.36719,164.40039 559.20508,166.70996 567.01172,173.72168 L 567.01172,173.72168 z" id="path7906"/>
        <path d="M 356.80566,162.27393 C 347.60547,170.33936 341.22461,180.53955 334.39941,190.05127 C 328.28125,197.62646 320.45508,202.62158 313.51953,209.13574 C 317.26367,201.37402 317.40039,192.10254 322.71094,184.97266 C 330.26758,171.78906 344.28027,167.15088 356.80566,162.27393 L 356.80566,162.27393 z" id="path7908"/>
        <path d="M 306.49219,190.35986 C 310.9668,184.79736 316.63965,180.93164 323.02344,179.29932 C 310.62793,187.81445 311.43457,203.07422 307.50488,215.75977 C 306.25195,220.45068 304.07617,224.77246 302.99219,229.58105 L 303.30762,229.83203 C 305.37012,224.396 308.99512,219.25977 313.51953,214.82422 C 322.32324,206.69727 335.34668,201.63232 339.66113,189.61035 C 339.46387,206.31641 325.52734,219.4502 312.19238,228.83936 C 306.69336,233.66357 301.39063,239.16162 298.3623,245.36328 C 298.06543,241.14844 298.98535,236.9165 298.68555,232.40137 C 297.23535,217.81787 296.18164,201.17236 306.49219,190.35986 L 306.49219,190.35986 z" id="path7910"/>
        <path d="M 281.41211,240.22754 C 281.03906,225.44922 287.17285,213.38574 295.81641,202.37451 C 296.06738,202.24902 296.24609,201.99805 296.56934,202.05859 C 287.05469,216.51709 294.92578,234.729 294.49219,251.16895 L 293.2373,268.00098 C 293.42383,268.12305 293.42383,268.62891 293.86523,268.43457 C 294.42773,266.55859 294.5498,264.55371 294.92578,262.62402 C 297.16699,249.04688 308.95801,239.41309 319.25684,230.03027 C 321.45605,227.57617 323.40039,225.08447 324.53027,222.20459 C 323.68945,228.96484 321.57031,235.7832 318.76563,242.03516 C 310.75,257.66699 295.94238,270.49316 293.2373,288.38965 C 291.9248,271.23926 280.24805,258.41699 281.41211,240.22754 L 281.41211,240.22754 z" id="path7912"/>
        <path d="M 274.21387,261.24316 C 275.2793,256.62109 276.09375,251.83789 278.10547,247.59668 C 274.29395,267.13379 287.43457,281.21094 291.74512,298.14551 C 293.54883,304.47949 293.99023,311.28223 296.56934,317.22559 C 296.80957,317.35547 297.01855,317.10449 297.16699,316.91406 C 290.74902,298.9248 300.01367,282.20801 309.32324,268.12305 C 311.58691,264.30664 312.8916,260.05664 314.01758,255.66992 C 315.00684,263.81152 312.94824,273.1875 311.76563,281.64063 C 309.50195,292.39648 306.12305,302.59668 303.18164,313.0332 C 301.24609,319.55469 301.75488,326.91211 302.74902,333.74512 L 301.81641,333 C 294.99121,320.41406 281.47656,310.59766 277.46289,296.84766 C 274.16016,285.88574 271.96484,273.1875 274.21387,261.24316 L 274.21387,261.24316 z" id="path7914"/>
        <path d="M 273.59766,299.40137 C 275.10059,320.10938 297.36914,331.05176 307.69141,348.19531 C 310.13379,351.70313 312.25293,355.58398 315.5166,358.52051 C 315.00684,356.31445 312.94824,354.45801 312.19238,352.19824 C 308.58105,345.00781 307.26465,336.43945 308.13281,327.74902 C 309.13281,317.17188 313.56934,307.35645 311.87598,296.23145 C 320.94629,315.78809 318.19141,340.19824 323.2627,361.38965 C 324.59082,366.02441 327.27344,370.16309 329.03125,374.59277 C 310.39551,361.90039 284.98438,349.82422 276.7168,326.5625 C 273.23242,318.54199 272.84375,308.6123 273.59766,299.40137 L 273.59766,299.40137 z" id="path7916"/>
        <path d="M 284.72949,346.95508 C 295.12012,370.46094 321.14355,372.4082 338.5918,386.72168 C 341.80273,389.56738 345.16699,391.9873 348.79199,393.67578 L 348.97852,393.48633 C 344.97266,389.86426 340.33887,385.73926 337.53418,381.04492 C 327.32227,366.8457 330.91406,346.95508 323.2627,331.68359 C 330.21484,340 336.53711,348.64453 340.73438,358.0791 C 346.97754,373.48047 349.36328,390.87598 363.80957,402.51807 C 348.17578,397.36572 329.86035,398.80518 316.06152,389.17871 C 300.99512,379.91895 287.54883,364.21289 284.72949,346.95508 L 284.72949,346.95508 z" id="path7918"/>
        <path d="M 311.43457,390.80664 C 328.09473,409.75439 355.31738,403.43213 377.50977,408.39111 C 380.64453,408.81885 383.51367,410.07471 386.83594,409.56494 C 384.19043,407.89111 380.51953,408.07275 377.63184,406.55127 C 360.23633,400.43994 357.68457,381.60742 348.24121,368.9082 C 360.30566,376.91992 370.44824,387.72559 381.57813,398.1958 C 389.57813,405.20361 399.20801,408.43799 409.35449,410.50049 C 406.91602,411.39111 403.71973,411.14697 401.10254,411.83252 C 382.87402,416.31494 362.62207,423.64111 343.29102,417.08252 C 330.72363,413.12549 317.75781,403.18799 311.43457,390.80664 L 311.43457,390.80664 z" id="path7920"/>
        <path d="M 537.55664,434.97314 C 518.7832,441.979 499.19043,434.65283 484.52734,423.53369 C 478.59082,419.76025 473.35742,414.32666 465.67871,414.80713 C 462.89355,414.75439 460.20801,414.89111 457.84082,415.57471 C 472.08594,422.20361 485.31836,431.34229 497.41699,443.02979 C 495.37793,445.35791 492.7373,447.53564 490.25,449.54346 C 478.59082,436.98096 465.67871,424.88916 451.22168,417.82666 C 448.39063,418.19385 445.69727,419.89697 443.14453,421.26807 C 431.375,428.70947 419.7373,438.28174 410.9873,450.00049 L 403.46875,443.7915 C 415.46875,431.65283 428.74219,422.20361 443.2627,415.45361 C 428.99414,410.93408 419.68066,422.88721 408.84961,428.96729 C 396.22852,437.77979 378.07715,441.91846 362.82422,435.83838 C 354.62109,432.72705 346.67383,428.14502 340.73438,420.69775 C 352.73828,428.96729 370.61621,429.83447 384.26758,424.46338 C 402.58594,416.51807 421.62109,406.4458 443.7041,411.26221 C 447.15039,411.32275 450.49902,414.75439 453.75488,411.83252 C 470.16797,407.5708 488.75,410.50049 502.88086,418.00244 L 517.44531,423.84033 C 530.98242,428.84619 548.48438,427.46143 560.08789,419.21338 C 554.12207,426.63916 545.97266,431.95947 537.55664,434.97314 L 537.55664,434.97314 z" id="path7922"/>
        <path d="M 557.6748,415.57471 C 536.59668,423.53369 515.3916,413.76416 495.19531,410.50049 L 491.30664,410.00635 L 491.30664,409.8833 C 500.96387,407.69189 510.33789,404.81689 518.02441,397.87744 C 529.3457,386.99512 539.41992,375.79395 551.99219,367.21875 C 542.66895,379.17285 541.68066,396.18799 526.2793,403.87354 C 522.46777,406.36768 517.65723,406.80908 513.72363,408.69775 C 519.33301,408.81885 524.46875,406.80908 530.02344,406.24658 C 550.67578,403.00439 574.30176,406.33057 588.79004,388.7373 C 583.41113,400.99658 569.94043,411.26221 557.6748,415.57471 L 557.6748,415.57471 z" id="path7924"/>
        <path d="M 595.97266,356.26855 C 587.64844,361.7168 579.21094,366.76953 571.21191,372.96387 L 571.21191,372.20313 C 583.46387,351.84082 577.47461,323.86816 585.02344,301.45898 L 587.83887,293.95215 C 586.26367,307.91211 592.32715,319.7373 591.90137,333.74512 C 591.47559,342.20703 588.71387,349.70996 584.27051,356.4668 L 585.02344,356.4668 C 591.02637,348.58301 595.71387,340.19824 602.72949,332.68848 C 613.61914,322.1875 624.69043,311.41992 626.12012,296.84766 C 629.81836,321.1748 616.16797,342.49609 595.97266,356.26855 L 595.97266,356.26855 z" id="path7926"/>
      </g>
    </g>
    <path style="font-size: 245.203px; font-style: normal; font-weight: normal; fill: url(#linearGradient2638) rgb(0, 0, 0); fill-opacity: 1; stroke: none; stroke-width: 1px; stroke-linecap: butt; stroke-linejoin: miter; stroke-opacity: 1; font-family: Lello;" d="M 163.82665,416.22874 C 162.65997,422.6685 162.0318,432.42395 161.94218,445.4951 L 161.53837,445.35094 C 159.83324,434.68261 154.71823,427.76248 146.19332,424.59054 C 137.6682,421.41903 128.96372,420.16957 120.07983,420.84215 C 108.14473,422.28405 99.709442,426.60912 94.77396,433.81739 C 89.838366,441.02605 87.729552,449.29175 88.447498,458.61452 C 89.344816,471.87826 97.331412,485.28599 112.40731,498.83777 C 127.48304,512.3898 139.86676,524.74029 149.55847,535.88929 C 159.24995,547.03846 164.09575,560.3501 164.09587,575.8242 C 164.09575,591.2023 159.16022,604.05739 149.28925,614.38951 C 139.41807,624.72165 127.57279,629.8877 113.75336,629.8877 C 101.01064,630.07994 90.152452,628.61421 81.178786,625.49054 C 72.205038,622.36688 67.628453,619.89198 67.449,618.06583 L 63.14162,583.89769 L 63.680041,584.04186 C 66.461879,601.05386 73.214584,611.77044 83.938199,616.19162 C 94.661742,620.61283 104.60011,622.58314 113.75336,622.10256 C 124.34226,621.71812 133.24865,618.40222 140.47258,612.15487 C 147.69631,605.90757 151.66718,598.65104 152.38519,590.38531 C 153.73113,576.16065 145.65479,560.92677 128.15617,544.68362 C 110.65737,528.44064 97.017336,514.60039 87.236053,503.16284 C 77.454658,491.72555 72.563996,478.99061 72.564016,464.95798 C 72.563996,451.21401 77.252748,439.22393 86.630315,428.98771 C 96.007789,418.75191 107.33709,413.63389 120.61825,413.63368 C 125.2845,413.44167 132.17181,413.89821 141.28022,415.00329 C 150.38843,416.10881 157.90391,416.51729 163.82665,416.22874 L 163.82665,416.22874 z M 256.97377,413.63368 C 272.04951,413.63389 285.15111,419.37663 296.27862,430.86192 C 307.4059,442.34759 313.01447,456.64437 313.10433,473.7523 C 313.1042,490.86054 307.63024,505.15731 296.68244,516.64269 C 285.73441,528.12827 272.54307,533.87102 257.10838,533.87092 C 248.04486,533.87102 239.78906,531.80458 232.34093,527.67164 L 232.47555,527.23913 C 239.38525,530.69929 246.4296,532.38126 253.60863,532.28505 C 261.86436,532.57349 270.54641,528.08023 279.65483,518.80522 C 288.76303,509.53044 293.36206,496.33896 293.4519,479.23074 C 293.4518,462.02669 287.8881,447.70588 276.7608,436.26827 C 265.63332,424.83104 252.53171,419.54483 237.45595,420.40964 L 231.80251,420.55381 C 231.26404,432.76036 231.03971,440.06492 231.12949,442.46755 C 230.68075,471.30158 230.45641,497.7326 230.45646,521.76069 C 230.45641,545.789 230.68075,572.22002 231.12949,601.05384 C 231.21918,609.99235 232.90174,616.64817 236.17719,621.0213 C 239.45255,625.39444 244.50025,628.15767 251.32033,629.31103 L 251.32033,629.8877 C 231.21918,627.77323 211.02835,627.77323 190.7478,629.8877 L 190.7478,629.31103 C 197.5678,628.15767 202.61551,625.39444 205.89093,621.0213 C 209.16631,616.64817 210.84888,609.99235 210.93864,601.05384 C 211.3873,572.22002 211.61164,545.789 211.61167,521.76069 C 211.61164,497.7326 211.3873,471.30158 210.93864,442.46755 C 210.84888,433.52924 209.16631,426.87343 205.89093,422.5001 C 202.61551,418.12717 197.5678,415.36393 190.7478,414.21036 L 190.7478,413.63368 C 208.96441,415.36393 223.43449,415.79644 234.15812,414.93121 C 244.88163,414.06641 252.48684,413.63389 256.97377,413.63368 L 256.97377,413.63368 z M 325.35345,521.61652 C 325.35345,490.37997 334.50661,464.57368 352.813,444.19758 C 371.11931,423.82186 394.18173,413.63389 422.0003,413.63368 C 449.90841,413.63389 472.99326,423.84589 491.2549,444.26967 C 509.51623,464.69382 518.64696,490.47608 518.64717,521.61652 C 518.64696,552.9494 509.49378,578.85181 491.18761,599.3238 C 485.71348,605.47505 479.74597,610.7132 473.28505,615.03826 C 476.78465,615.03827 480.419,615.95135 484.18811,617.77748 L 523.35836,637.38451 C 543.01056,647.76468 559.99329,655.09329 574.3066,659.37033 C 588.6194,663.64733 605.15344,663.95969 623.90878,660.30744 C 642.66351,656.65513 660.47631,650.64808 677.34723,642.28627 L 677.34723,642.86295 C 659.4892,653.24312 640.91364,661.8452 621.62049,668.66926 C 602.32672,675.49323 583.72874,677.27131 565.82645,674.00353 C 547.92366,670.73565 528.83212,663.95969 508.55174,653.67565 L 462.78581,630.8969 C 455.78618,627.2446 450.4917,625.89903 446.90235,626.86015 L 446.90235,626.86015 C 439.09511,628.87852 430.79443,629.8877 422.0003,629.8877 C 394.18173,629.8877 371.11931,619.67572 352.813,599.25172 C 334.50661,578.82778 325.35345,552.9494 325.35345,521.61652 L 325.35345,521.61652 z M 431.6919,619.79585 C 453.58762,617.39305 470.81714,606.05173 483.38047,585.77188 C 495.9435,565.49214 500.83417,541.22365 498.05249,512.96637 C 495.27047,484.90154 485.78077,462.36309 469.5834,445.35094 C 453.38572,428.33915 434.33905,421.08264 412.44329,423.58137 C 390.45764,425.98439 373.18327,437.30167 360.62012,457.53324 C 348.05691,477.76516 343.16624,501.96157 345.94812,530.12252 C 348.72993,558.37978 358.24206,581.01434 374.4845,598.02628 C 390.72685,615.03827 409.79598,622.2948 431.6919,619.79585 L 431.6919,619.79585 z M 605.06396,413.63368 C 621.30629,413.63389 635.43987,419.80914 647.46475,432.15945 C 659.48939,444.51014 665.50178,459.96027 665.50191,478.5099 C 665.3223,494.94534 660.74571,508.78558 651.77214,520.03066 C 644.41358,528.68092 637.36922,534.97631 630.63905,538.91685 C 634.76685,539.87807 638.53581,542.76145 641.94592,547.56701 L 676.53956,600.18882 C 685.60286,614.99023 694.35221,624.55345 702.78766,628.87852 C 711.22278,633.20359 719.0299,634.02056 726.2091,631.3294 L 726.47826,631.90608 C 700.81323,645.26575 679.23154,639.69121 661.73296,615.18243 L 621.48587,553.76629 C 618.88339,549.82574 614.93497,547.80737 609.64056,547.71118 C 595.91072,548.96072 584.15516,548.86461 574.37388,547.42284 C 574.73278,562.70485 574.82252,580.58184 574.6431,601.05384 C 574.73278,609.99235 576.41536,616.64817 579.69081,621.0213 C 582.96615,625.39444 588.01387,628.15767 594.83395,629.31103 L 594.83395,629.8877 C 574.73278,627.77323 554.54196,627.77323 534.26139,629.8877 L 534.26139,629.31103 C 541.0814,628.15767 546.12911,625.39444 549.40454,621.0213 C 552.67992,616.64817 554.36248,609.99235 554.45225,601.05384 C 554.9009,572.22002 555.12525,545.789 555.12527,521.76069 C 555.12525,497.7326 554.9009,471.30158 554.45225,442.46755 C 554.36248,433.52924 552.67992,426.87343 549.40454,422.5001 C 546.12911,418.12717 541.0814,415.36393 534.26139,414.21036 L 534.26139,413.63368 C 552.11906,415.07559 566.67889,415.41199 577.94093,414.64287 C 589.20289,413.87417 598.24388,413.53779 605.06396,413.63368 L 605.06396,413.63368 z M 576.52758,420.98632 C 575.63016,427.04164 575.00199,434.15398 574.6431,442.32338 L 574.10467,509.65047 C 573.92516,520.70357 573.88029,530.74735 573.97007,539.78186 C 583.21294,541.70421 593.53269,542.08865 604.92937,540.93523 C 614.1722,540.93531 623.37024,535.52896 632.52353,524.71617 C 641.67659,513.90358 646.16345,500.3757 645.9841,484.13249 C 645.98397,465.48677 639.97159,449.98856 627.94693,437.63788 C 615.92207,425.28757 601.74362,419.54483 585.41155,420.40964 L 576.52758,420.98632 z" id="path2614"/>
    <g transform="matrix(2.59653, 0, 0, 2.39117, -787.375, -143.775)" id="g2640" style="fill: url(#linearGradient2680) rgb(0, 0, 0); fill-opacity: 1;">
      <g id="g2642" style="fill: url(#linearGradient2712) rgb(0, 0, 0); fill-opacity: 1;">
        <path d="M 569.38574,394.10938 C 558.61133,396.99463 547.11426,397.92236 536.65039,401.49072 C 554.37305,386.29492 553.36133,362.78223 565.18555,344.88477 C 568.95215,339.81738 572.06543,334.50586 576.45605,329.69727 C 569.26367,344.125 572.38281,362.84375 564.12012,376.84473 C 560.93945,382.40625 556.39063,387.80176 551.36035,392.16992 C 553.00391,392.1084 554.44238,390.68555 555.8877,389.73535 C 569.30859,376.34277 586.8418,372.59766 601.35938,361.7168 C 607.1748,357.08301 612.50098,351.01074 615.05762,344.44336 C 612.31055,366.66309 590.20508,387.48926 569.38574,394.10938 L 569.38574,394.10938 z" id="path2644" style="fill: url(#linearGradient2682) rgb(0, 0, 0); fill-opacity: 1;"/>
        <path d="M 617.73535,304.14551 C 611.16895,313.48926 603.22559,322.1875 597.15918,331.68359 C 597.83594,324.16504 598.72656,314.91992 595.79785,307.79785 C 590.72266,292.46094 586.26367,276.88867 584.8252,260.05664 L 585.02344,253.62012 C 588.84277,270.80957 605.72852,282.62598 604.66309,301.90723 C 605.0498,306.58008 603.60449,310.55273 602.72949,314.66211 L 603.01953,314.96582 L 603.78027,314.11328 C 606.28418,304.65527 607.54785,294.70996 611.44141,285.88574 C 616.97461,273.1875 623.88379,260.37207 621.06836,245.04004 C 629.48438,263.11621 626.93457,287.26758 617.73535,304.14551 L 617.73535,304.14551 z" id="path2646" style="fill: url(#linearGradient2684) rgb(0, 0, 0); fill-opacity: 1;"/>
        <path d="M 607.37109,206.75781 C 618.44336,221.76318 620.87012,245.67578 612.80566,262.8877 C 609.7998,270.18164 607.67676,277.9541 606.49609,286.02734 C 605.93262,284.63477 605.80371,282.7627 605.30078,281.21094 C 600.89648,264.36328 584.96289,252.35645 578.41016,236.47217 C 576.33203,231.27783 574.56055,225.91064 573.57813,220.27197 C 580.58008,233.22217 597.83594,239.91113 602.53906,254.18262 C 604.46582,257.79199 604.35742,262.30176 605.55273,266.18262 C 605.80371,266.18262 606.05469,265.99609 606.05469,265.74121 C 603.98438,251.04004 604.61621,235.65381 606.61133,221.13525 C 606.49609,213.271 605.72852,205.64258 601.35938,199.55518 C 604.16113,201.1875 605.42285,204.32275 607.37109,206.75781 L 607.37109,206.75781 z" id="path2648" style="fill: url(#linearGradient2686) rgb(0, 0, 0); fill-opacity: 1;"/>
        <path d="M 599.56445,203.87744 C 602.47266,217.02637 598.22461,229.83203 600.89648,243.10742 L 600.79688,243.22168 C 593.64355,229.15527 578.45703,222.5166 568.00781,211.2583 C 561.95215,204.57764 559.31934,196.43555 557.80469,187.81445 C 563.79199,202.24902 579.94824,205.42969 589.22363,217.59326 C 592.32715,220.39746 593.33984,224.28223 595.34082,227.4624 L 595.66797,227.14648 C 590.33398,215.75977 588.54687,202.94531 584.8252,190.80127 C 582.96191,185.53906 579.26367,180.36865 574.30176,177.05078 C 586.47754,179.53906 597.03027,192.25049 599.56445,203.87744 L 599.56445,203.87744 z" id="path2650" style="fill: url(#linearGradient2688) rgb(0, 0, 0); fill-opacity: 1;"/>
        <path d="M 567.01172,173.72168 C 576.18164,181.92871 580.3291,192.55518 583.00684,203.56543 L 584.52148,207.06201 C 571.21191,197.48975 559.12109,184.62207 550.62207,171.03223 L 540.24219,160.53125 C 549.36719,164.40039 559.20508,166.70996 567.01172,173.72168 L 567.01172,173.72168 z" id="path2652" style="fill: url(#linearGradient2690) rgb(0, 0, 0); fill-opacity: 1;"/>
        <path d="M 356.80566,162.27393 C 347.60547,170.33936 341.22461,180.53955 334.39941,190.05127 C 328.28125,197.62646 320.45508,202.62158 313.51953,209.13574 C 317.26367,201.37402 317.40039,192.10254 322.71094,184.97266 C 330.26758,171.78906 344.28027,167.15088 356.80566,162.27393 L 356.80566,162.27393 z" id="path2654" style="fill: url(#linearGradient2692) rgb(0, 0, 0); fill-opacity: 1;"/>
        <path d="M 306.49219,190.35986 C 310.9668,184.79736 316.63965,180.93164 323.02344,179.29932 C 310.62793,187.81445 311.43457,203.07422 307.50488,215.75977 C 306.25195,220.45068 304.07617,224.77246 302.99219,229.58105 L 303.30762,229.83203 C 305.37012,224.396 308.99512,219.25977 313.51953,214.82422 C 322.32324,206.69727 335.34668,201.63232 339.66113,189.61035 C 339.46387,206.31641 325.52734,219.4502 312.19238,228.83936 C 306.69336,233.66357 301.39063,239.16162 298.3623,245.36328 C 298.06543,241.14844 298.98535,236.9165 298.68555,232.40137 C 297.23535,217.81787 296.18164,201.17236 306.49219,190.35986 L 306.49219,190.35986 z" id="path2656" style="fill: url(#linearGradient2694) rgb(0, 0, 0); fill-opacity: 1;"/>
        <path d="M 281.41211,240.22754 C 281.03906,225.44922 287.17285,213.38574 295.81641,202.37451 C 296.06738,202.24902 296.24609,201.99805 296.56934,202.05859 C 287.05469,216.51709 294.92578,234.729 294.49219,251.16895 L 293.2373,268.00098 C 293.42383,268.12305 293.42383,268.62891 293.86523,268.43457 C 294.42773,266.55859 294.5498,264.55371 294.92578,262.62402 C 297.16699,249.04688 308.95801,239.41309 319.25684,230.03027 C 321.45605,227.57617 323.40039,225.08447 324.53027,222.20459 C 323.68945,228.96484 321.57031,235.7832 318.76563,242.03516 C 310.75,257.66699 295.94238,270.49316 293.2373,288.38965 C 291.9248,271.23926 280.24805,258.41699 281.41211,240.22754 L 281.41211,240.22754 z" id="path2658" style="fill: url(#linearGradient2696) rgb(0, 0, 0); fill-opacity: 1;"/>
        <path d="M 274.21387,261.24316 C 275.2793,256.62109 276.09375,251.83789 278.10547,247.59668 C 274.29395,267.13379 287.43457,281.21094 291.74512,298.14551 C 293.54883,304.47949 293.99023,311.28223 296.56934,317.22559 C 296.80957,317.35547 297.01855,317.10449 297.16699,316.91406 C 290.74902,298.9248 300.01367,282.20801 309.32324,268.12305 C 311.58691,264.30664 312.8916,260.05664 314.01758,255.66992 C 315.00684,263.81152 312.94824,273.1875 311.76563,281.64063 C 309.50195,292.39648 306.12305,302.59668 303.18164,313.0332 C 301.24609,319.55469 301.75488,326.91211 302.74902,333.74512 L 301.81641,333 C 294.99121,320.41406 281.47656,310.59766 277.46289,296.84766 C 274.16016,285.88574 271.96484,273.1875 274.21387,261.24316 L 274.21387,261.24316 z" id="path2660" style="fill: url(#linearGradient2698) rgb(0, 0, 0); fill-opacity: 1;"/>
        <path d="M 273.59766,299.40137 C 275.10059,320.10938 297.36914,331.05176 307.69141,348.19531 C 310.13379,351.70313 312.25293,355.58398 315.5166,358.52051 C 315.00684,356.31445 312.94824,354.45801 312.19238,352.19824 C 308.58105,345.00781 307.26465,336.43945 308.13281,327.74902 C 309.13281,317.17188 313.56934,307.35645 311.87598,296.23145 C 320.94629,315.78809 318.19141,340.19824 323.2627,361.38965 C 324.59082,366.02441 327.27344,370.16309 329.03125,374.59277 C 310.39551,361.90039 284.98438,349.82422 276.7168,326.5625 C 273.23242,318.54199 272.84375,308.6123 273.59766,299.40137 L 273.59766,299.40137 z" id="path2662" style="fill: url(#linearGradient2700) rgb(0, 0, 0); fill-opacity: 1;"/>
        <path d="M 284.72949,346.95508 C 295.12012,370.46094 321.14355,372.4082 338.5918,386.72168 C 341.80273,389.56738 345.16699,391.9873 348.79199,393.67578 L 348.97852,393.48633 C 344.97266,389.86426 340.33887,385.73926 337.53418,381.04492 C 327.32227,366.8457 330.91406,346.95508 323.2627,331.68359 C 330.21484,340 336.53711,348.64453 340.73438,358.0791 C 346.97754,373.48047 349.36328,390.87598 363.80957,402.51807 C 348.17578,397.36572 329.86035,398.80518 316.06152,389.17871 C 300.99512,379.91895 287.54883,364.21289 284.72949,346.95508 L 284.72949,346.95508 z" id="path2664" style="fill: url(#linearGradient2702) rgb(0, 0, 0); fill-opacity: 1;"/>
        <path d="M 311.43457,390.80664 C 328.09473,409.75439 355.31738,403.43213 377.50977,408.39111 C 380.64453,408.81885 383.51367,410.07471 386.83594,409.56494 C 384.19043,407.89111 380.51953,408.07275 377.63184,406.55127 C 360.23633,400.43994 357.68457,381.60742 348.24121,368.9082 C 360.30566,376.91992 370.44824,387.72559 381.57813,398.1958 C 389.57813,405.20361 399.20801,408.43799 409.35449,410.50049 C 406.91602,411.39111 403.71973,411.14697 401.10254,411.83252 C 382.87402,416.31494 362.62207,423.64111 343.29102,417.08252 C 330.72363,413.12549 317.75781,403.18799 311.43457,390.80664 L 311.43457,390.80664 z" id="path2666" style="fill: url(#linearGradient2704) rgb(0, 0, 0); fill-opacity: 1;"/>
        <path d="M 537.55664,434.97314 C 518.7832,441.979 499.19043,434.65283 484.52734,423.53369 C 478.59082,419.76025 473.35742,414.32666 465.67871,414.80713 C 462.89355,414.75439 460.20801,414.89111 457.84082,415.57471 C 472.08594,422.20361 485.31836,431.34229 497.41699,443.02979 C 495.37793,445.35791 492.7373,447.53564 490.25,449.54346 C 478.59082,436.98096 465.67871,424.88916 451.22168,417.82666 C 448.39063,418.19385 445.69727,419.89697 443.14453,421.26807 C 431.375,428.70947 419.7373,438.28174 410.9873,450.00049 L 403.46875,443.7915 C 415.46875,431.65283 428.74219,422.20361 443.2627,415.45361 C 428.99414,410.93408 419.68066,422.88721 408.84961,428.96729 C 396.22852,437.77979 378.07715,441.91846 362.82422,435.83838 C 354.62109,432.72705 346.67383,428.14502 340.73438,420.69775 C 352.73828,428.96729 370.61621,429.83447 384.26758,424.46338 C 402.58594,416.51807 421.62109,406.4458 443.7041,411.26221 C 447.15039,411.32275 450.49902,414.75439 453.75488,411.83252 C 470.16797,407.5708 488.75,410.50049 502.88086,418.00244 L 517.44531,423.84033 C 530.98242,428.84619 548.48438,427.46143 560.08789,419.21338 C 554.12207,426.63916 545.97266,431.95947 537.55664,434.97314 L 537.55664,434.97314 z" id="path2668" style="fill: url(#linearGradient2706) rgb(0, 0, 0); fill-opacity: 1;"/>
        <path d="M 557.6748,415.57471 C 536.59668,423.53369 515.3916,413.76416 495.19531,410.50049 L 491.30664,410.00635 L 491.30664,409.8833 C 500.96387,407.69189 510.33789,404.81689 518.02441,397.87744 C 529.3457,386.99512 539.41992,375.79395 551.99219,367.21875 C 542.66895,379.17285 541.68066,396.18799 526.2793,403.87354 C 522.46777,406.36768 517.65723,406.80908 513.72363,408.69775 C 519.33301,408.81885 524.46875,406.80908 530.02344,406.24658 C 550.67578,403.00439 574.30176,406.33057 588.79004,388.7373 C 583.41113,400.99658 569.94043,411.26221 557.6748,415.57471 L 557.6748,415.57471 z" id="path2670" style="fill: url(#linearGradient2708) rgb(0, 0, 0); fill-opacity: 1;"/>
        <path d="M 595.97266,356.26855 C 587.64844,361.7168 579.21094,366.76953 571.21191,372.96387 L 571.21191,372.20313 C 583.46387,351.84082 577.47461,323.86816 585.02344,301.45898 L 587.83887,293.95215 C 586.26367,307.91211 592.32715,319.7373 591.90137,333.74512 C 591.47559,342.20703 588.71387,349.70996 584.27051,356.4668 L 585.02344,356.4668 C 591.02637,348.58301 595.71387,340.19824 602.72949,332.68848 C 613.61914,322.1875 624.69043,311.41992 626.12012,296.84766 C 629.81836,321.1748 616.16797,342.49609 595.97266,356.26855 L 595.97266,356.26855 z" id="path2672" style="fill: url(#linearGradient2710) rgb(0, 0, 0); fill-opacity: 1;"/>
      </g>
    </g>
  </g>
</svg>